<svg width="22" height="22" viewBox="0 0 22 22" fill="none" xmlns="http://www.w3.org/2000/svg">
<path d="M8.70837 5.95834V8.70834H5.95837V5.95834H8.70837ZM10.0834 4.58334H4.58337V10.0833H10.0834V4.58334ZM8.70837 13.2917V16.0417H5.95837V13.2917H8.70837ZM10.0834 11.9167H4.58337V17.4167H10.0834V11.9167ZM16.0417 5.95834V8.70834H13.2917V5.95834H16.0417ZM17.4167 4.58334H11.9167V10.0833H17.4167V4.58334ZM11.9167 11.9167H13.2917V13.2917H11.9167V11.9167ZM13.2917 13.2917H14.6667V14.6667H13.2917V13.2917ZM14.6667 11.9167H16.0417V13.2917H14.6667V11.9167ZM11.9167 14.6667H13.2917V16.0417H11.9167V14.6667ZM13.2917 16.0417H14.6667V17.4167H13.2917V16.0417ZM14.6667 14.6667H16.0417V16.0417H14.6667V14.6667ZM16.0417 13.2917H17.4167V14.6667H16.0417V13.2917ZM16.0417 16.0417H17.4167V17.4167H16.0417V16.0417ZM20.1667 6.41668H18.3334V3.66668H15.5834V1.83334H20.1667V6.41668ZM20.1667 20.1667V15.5833H18.3334V18.3333H15.5834V20.1667H20.1667ZM1.83337 20.1667H6.41671V18.3333H3.66671V15.5833H1.83337V20.1667ZM1.83337 1.83334V6.41668H3.66671V3.66668H6.41671V1.83334H1.83337Z" fill="#545454"/>
</svg>
