<svg width="162" height="162" viewBox="0 0 162 162" fill="none" xmlns="http://www.w3.org/2000/svg">
<path d="M81 0C36.2692 0 0 36.2692 0 81C0 125.731 36.2692 162 81 162C125.731 162 162 125.731 162 81C162 36.2692 125.731 0 81 0ZM111.194 114.557C103.854 121.319 93.8371 125.297 81.8859 125.297C64.583 125.297 49.6125 115.371 42.3261 100.906C39.3248 94.9219 37.6071 88.1598 37.6071 81C37.6071 73.8402 39.3248 67.0781 42.3261 61.0935C49.6125 46.6112 64.583 36.685 81.8859 36.685C93.819 36.685 103.835 41.0786 111.52 48.2203L98.8272 60.9308C94.2348 56.5373 88.3949 54.3134 81.904 54.3134C70.3687 54.3134 60.6054 62.106 57.1158 72.5746C56.2299 75.2324 55.7237 78.071 55.7237 81C55.7237 83.929 56.2299 86.7676 57.1158 89.4254C60.6054 99.894 70.3688 107.687 81.8859 107.687C87.8525 107.687 92.915 106.114 96.8745 103.456C101.575 100.31 104.685 95.627 105.716 90.0763H81.8859V72.9362H123.597C124.122 75.8471 124.393 78.8665 124.393 81.9944C124.393 95.5004 119.565 106.837 111.194 114.557V114.557Z" fill="#85B6FF"/>
</svg>
