<svg width="10" height="10" viewBox="0 0 10 10" fill="none" xmlns="http://www.w3.org/2000/svg">
<path d="M2.8535 8.64629L7.5 3.99979L5.293 1.79279L0.6465 6.43929C0.582532 6.50333 0.537092 6.5835 0.515 6.67129L0 9.29279L2.621 8.77779C2.709 8.75579 2.7895 8.71029 2.8535 8.64629V8.64629ZM9 2.49979C9.18747 2.31226 9.29279 2.05795 9.29279 1.79279C9.29279 1.52762 9.18747 1.27331 9 1.08579L8.207 0.292786C8.01947 0.105315 7.76516 0 7.5 0C7.23484 0 6.98053 0.105315 6.793 0.292786L6 1.08579L8.207 3.29279L9 2.49979Z" fill="#545454"/>
</svg>
