<svg width="12" height="14" viewBox="0 0 12 14" fill="none" xmlns="http://www.w3.org/2000/svg">
<path d="M4.5 3.15V5.25H2.7V3.15H4.5ZM5.4 2.1H1.8V6.3H5.4V2.1ZM4.5 8.75V10.85H2.7V8.75H4.5ZM5.4 7.7H1.8V11.9H5.4V7.7ZM9.3 3.15V5.25H7.5V3.15H9.3ZM10.2 2.1H6.6V6.3H10.2V2.1ZM6.6 7.7H7.5V8.75H6.6V7.7ZM7.5 8.75H8.4V9.8H7.5V8.75ZM8.4 7.7H9.3V8.75H8.4V7.7ZM6.6 9.8H7.5V10.85H6.6V9.8ZM7.5 10.85H8.4V11.9H7.5V10.85ZM8.4 9.8H9.3V10.85H8.4V9.8ZM9.3 8.75H10.2V9.8H9.3V8.75ZM9.3 10.85H10.2V11.9H9.3V10.85ZM12 3.5H10.8V1.4H9V0H12V3.5ZM12 14V10.5H10.8V12.6H9V14H12ZM0 14H3V12.6H1.2V10.5H0V14ZM0 0V3.5H1.2V1.4H3V0H0Z" fill="#545454"/>
</svg>
